<svg width="78" height="91" viewBox="0 0 78 91" fill="none" xmlns="http://www.w3.org/2000/svg">
<path d="M70.472 1.48C71.496 1.48 72.8613 2.376 74.568 4.168C76.2747 5.96 77.128 7.32533 77.128 8.26399C77.128 9.11733 76.8293 9.8 76.232 10.312C75.72 10.824 74.8667 11.5067 73.672 12.36C72.4773 13.2133 71.4533 14.0667 70.6 14.92C67.4427 17.992 58.184 29.4267 42.824 49.224C45.128 52.9787 48.456 58.1413 52.808 64.712C57.16 71.1973 60.2747 76.104 62.152 79.432C64.1147 82.6747 65.096 84.9787 65.096 86.344C65.096 87.7093 64.7547 88.776 64.072 89.544C63.3893 90.2267 62.6213 90.568 61.768 90.568C59.6347 90.568 56.0933 87.5387 51.144 81.48C46.28 75.336 41.0747 67.6987 35.528 58.568C31.0907 64.456 28.1893 68.2533 26.824 69.96C25.544 71.6667 24.1787 73.5013 22.728 75.464C21.2773 77.3413 20.0827 78.8347 19.144 79.944C18.2907 80.968 17.2667 82.1627 16.072 83.528C14.9627 84.808 14.024 85.832 13.256 86.6C12.488 87.2827 11.6773 87.9653 10.824 88.648C9.288 89.8427 7.83733 90.44 6.472 90.44C5.192 90.44 3.82667 89.8853 2.376 88.776C0.925333 87.6667 0.2 86.7707 0.2 86.088C0.2 85.4053 0.242667 84.9787 0.328 84.808C0.413333 84.552 0.541333 84.296 0.712 84.04C0.968 83.6987 1.13867 83.4427 1.224 83.272C1.39467 83.1013 2.07733 82.4187 3.272 81.224C10.184 73.7147 19.0587 62.8773 29.896 48.712C18.376 27.976 12.616 13.2133 12.616 4.424C12.616 2.12 13.2133 0.967995 14.408 0.967995C16.8827 0.967995 19.3147 1.60799 21.704 2.88799C24.1787 4.08266 25.416 5.49066 25.416 7.112C25.416 14.9627 29.256 25.672 36.936 39.24C48.968 22.6 56.9467 12.1467 60.872 7.88C64.8827 3.61333 68.0827 1.48 70.472 1.48Z" fill="#FEFEFE"/>
</svg>
