<svg width="158" height="141" viewBox="0 0 158 141" fill="none" xmlns="http://www.w3.org/2000/svg">
<g filter="url(#filter0_di_2003_6)">
<path d="M53.4011 51.1497C59.955 64.2032 42.4165 76.1154 33.2639 64.7322L5.77307 30.5416C-3.92058 18.4855 6.44323 0.842266 21.6937 3.43855L64.3687 10.7037C78.1404 13.0482 77.079 33.1671 63.1371 34.0496V34.0496C54.7195 34.5824 49.6167 43.612 53.4011 51.1497V51.1497Z" fill="#d3d3d3"/>
</g>
<g filter="url(#filter1_di_2003_6)">
<path d="M104.023 51.112C97.5131 64.1482 115.055 75.9588 124.156 64.579L151.432 30.4721C161.07 18.4199 150.704 0.843271 135.493 3.44684L93.0434 10.7126C79.288 13.0671 80.3536 33.1607 94.2809 34.047V34.047C102.682 34.5817 107.784 43.5805 104.023 51.112V51.112Z" fill="#d3d3d3"/>
</g>
<g filter="url(#filter2_di_2003_6)">
<path d="M67.3275 74.8224C58.7632 63.4158 39.7847 73.9737 45.7116 86.8476L63.453 125.384C69.5235 138.57 89.6931 137.457 94.9736 123.645L109.995 84.3539C115.07 71.0772 96.18 62.4964 87.7424 74.2101V74.2101C82.794 81.0798 72.2724 81.4085 67.3275 74.8224V74.8224Z" fill="#d3d3d3"/>
</g>
<defs>
<filter id="filter0_di_2003_6" x="0.00912476" y="0.181498" width="76.1541" height="73.1201" filterUnits="userSpaceOnUse" color-interpolation-filters="sRGB">
<feFlood flood-opacity="0" result="BackgroundImageFix"/>
<feColorMatrix in="SourceAlpha" type="matrix" values="0 0 0 0 0 0 0 0 0 0 0 0 0 0 0 0 0 0 127 0" result="hardAlpha"/>
<feOffset dy="-1"/>
<feGaussianBlur stdDeviation="1"/>
<feComposite in2="hardAlpha" operator="out"/>
<feColorMatrix type="matrix" values="0 0 0 0 0 0 0 0 0 0 0 0 0 0 0 0 0 0 0.25 0"/>
<feBlend mode="normal" in2="BackgroundImageFix" result="effect1_dropShadow_2003_6"/>
<feBlend mode="normal" in="SourceGraphic" in2="effect1_dropShadow_2003_6" result="shape"/>
<feColorMatrix in="SourceAlpha" type="matrix" values="0 0 0 0 0 0 0 0 0 0 0 0 0 0 0 0 0 0 127 0" result="hardAlpha"/>
<feOffset dy="4"/>
<feGaussianBlur stdDeviation="2"/>
<feComposite in2="hardAlpha" operator="arithmetic" k2="-1" k3="1"/>
<feColorMatrix type="matrix" values="0 0 0 0 0 0 0 0 0 0 0 0 0 0 0 0 0 0 0.25 0"/>
<feBlend mode="normal" in2="shape" result="effect2_innerShadow_2003_6"/>
</filter>
<filter id="filter1_di_2003_6" x="81.2632" y="0.187548" width="75.8993" height="72.9789" filterUnits="userSpaceOnUse" color-interpolation-filters="sRGB">
<feFlood flood-opacity="0" result="BackgroundImageFix"/>
<feColorMatrix in="SourceAlpha" type="matrix" values="0 0 0 0 0 0 0 0 0 0 0 0 0 0 0 0 0 0 127 0" result="hardAlpha"/>
<feOffset dy="-1"/>
<feGaussianBlur stdDeviation="1"/>
<feComposite in2="hardAlpha" operator="out"/>
<feColorMatrix type="matrix" values="0 0 0 0 0 0 0 0 0 0 0 0 0 0 0 0 0 0 0.25 0"/>
<feBlend mode="normal" in2="BackgroundImageFix" result="effect1_dropShadow_2003_6"/>
<feBlend mode="normal" in="SourceGraphic" in2="effect1_dropShadow_2003_6" result="shape"/>
<feColorMatrix in="SourceAlpha" type="matrix" values="0 0 0 0 0 0 0 0 0 0 0 0 0 0 0 0 0 0 127 0" result="hardAlpha"/>
<feOffset dy="4"/>
<feGaussianBlur stdDeviation="2"/>
<feComposite in2="hardAlpha" operator="arithmetic" k2="-1" k3="1"/>
<feColorMatrix type="matrix" values="0 0 0 0 0 0 0 0 0 0 0 0 0 0 0 0 0 0 0.25 0"/>
<feBlend mode="normal" in2="shape" result="effect2_innerShadow_2003_6"/>
</filter>
<filter id="filter2_di_2003_6" x="42.5851" y="65.6832" width="70.262" height="72.9837" filterUnits="userSpaceOnUse" color-interpolation-filters="sRGB">
<feFlood flood-opacity="0" result="BackgroundImageFix"/>
<feColorMatrix in="SourceAlpha" type="matrix" values="0 0 0 0 0 0 0 0 0 0 0 0 0 0 0 0 0 0 127 0" result="hardAlpha"/>
<feOffset dy="-1"/>
<feGaussianBlur stdDeviation="1"/>
<feComposite in2="hardAlpha" operator="out"/>
<feColorMatrix type="matrix" values="0 0 0 0 0 0 0 0 0 0 0 0 0 0 0 0 0 0 0.25 0"/>
<feBlend mode="normal" in2="BackgroundImageFix" result="effect1_dropShadow_2003_6"/>
<feBlend mode="normal" in="SourceGraphic" in2="effect1_dropShadow_2003_6" result="shape"/>
<feColorMatrix in="SourceAlpha" type="matrix" values="0 0 0 0 0 0 0 0 0 0 0 0 0 0 0 0 0 0 127 0" result="hardAlpha"/>
<feOffset dy="4"/>
<feGaussianBlur stdDeviation="2"/>
<feComposite in2="hardAlpha" operator="arithmetic" k2="-1" k3="1"/>
<feColorMatrix type="matrix" values="0 0 0 0 0 0 0 0 0 0 0 0 0 0 0 0 0 0 0.25 0"/>
<feBlend mode="normal" in2="shape" result="effect2_innerShadow_2003_6"/>
</filter>
</defs>
</svg>
